<?xml version="1.0" encoding="UTF-8"?>
<svg width="22px" height="22px" viewBox="0 0 22 22" version="1.1" xmlns="http://www.w3.org/2000/svg" xmlns:xlink="http://www.w3.org/1999/xlink">
    <title>􀊫</title>
    <g id="JobBoard" stroke="none" stroke-width="1" fill="none" fill-rule="evenodd">
        <g id="Home" transform="translate(-966.000000, -398.000000)" fill="#4052FF" fill-rule="nonzero">
            <g id="Group-4" transform="translate(383.000000, 244.000000)">
                <path d="M603.125,175.601562 C603.40625,175.601562 603.65625,175.539062 603.875,175.414062 C604.09375,175.289062 604.263672,175.115234 604.384766,174.892578 C604.505859,174.669922 604.566406,174.421875 604.566406,174.148438 C604.566406,173.960938 604.533203,173.777344 604.466797,173.597656 C604.400391,173.417969 604.296875,173.261719 604.15625,173.128906 L604.15625,173.128906 L599.148,168.102 L599.233579,167.986834 C599.517337,167.584828 599.766758,167.158902 599.981843,166.709057 L600.136719,166.367188 C600.582031,165.328125 600.804688,164.214844 600.804688,163.027344 C600.804688,161.839844 600.582031,160.724609 600.136719,159.681641 C599.691406,158.638672 599.072266,157.720703 598.279297,156.927734 C597.486328,156.134766 596.568359,155.513672 595.525391,155.064453 C594.482422,154.615234 593.367188,154.390625 592.179688,154.390625 C590.992188,154.390625 589.878906,154.615234 588.839844,155.064453 C587.800781,155.513672 586.882812,156.134766 586.085938,156.927734 C585.289062,157.720703 584.667969,158.636719 584.222656,159.675781 C583.777344,160.714844 583.554688,161.832031 583.554688,163.027344 C583.554688,164.214844 583.777344,165.328125 584.222656,166.367188 C584.667969,167.40625 585.287109,168.324219 586.080078,169.121094 C586.873047,169.917969 587.791016,170.539062 588.833984,170.984375 C589.876953,171.429688 590.992188,171.652344 592.179688,171.652344 C593.367188,171.652344 594.482422,171.429688 595.525391,170.984375 C595.988932,170.786458 596.427783,170.553819 596.841942,170.286458 L597.049,170.146 L602.09375,175.179688 C602.199219,175.291016 602.315674,175.379272 602.443115,175.444458 L602.574219,175.501953 C602.753906,175.568359 602.9375,175.601562 603.125,175.601562 Z M592.179688,169.554688 C591.289062,169.554688 590.447266,169.384766 589.654297,169.044922 C588.861328,168.705078 588.166016,168.234375 587.568359,167.632812 C586.970703,167.03125 586.501953,166.337891 586.162109,165.552734 C585.822266,164.767578 585.652344,163.925781 585.652344,163.027344 C585.652344,162.136719 585.822266,161.296875 586.162109,160.507812 C586.501953,159.71875 586.970703,159.023438 587.568359,158.421875 C588.166016,157.820312 588.861328,157.347656 589.654297,157.003906 C590.447266,156.660156 591.289062,156.488281 592.179688,156.488281 C593.078125,156.488281 593.921875,156.660156 594.710938,157.003906 C595.5,157.347656 596.193359,157.820312 596.791016,158.421875 C597.388672,159.023438 597.857422,159.71875 598.197266,160.507812 C598.537109,161.296875 598.707031,162.136719 598.707031,163.027344 C598.707031,163.925781 598.537109,164.767578 598.197266,165.552734 C597.857422,166.337891 597.388672,167.03125 596.791016,167.632812 C596.193359,168.234375 595.5,168.705078 594.710938,169.044922 C593.921875,169.384766 593.078125,169.554688 592.179688,169.554688 Z" id="􀊫"></path>
            </g>
        </g>
    </g>
</svg>